<?xml version="1.0" standalone="no"?>
<!DOCTYPE svg PUBLIC "-//W3C//DTD SVG 20010904//EN"
 "http://www.w3.org/TR/2001/REC-SVG-20010904/DTD/svg10.dtd">
<svg version="1.0" xmlns="http://www.w3.org/2000/svg"
 width="300.000000pt" height="300.000000pt" viewBox="0 0 300.000000 300.000000"
 preserveAspectRatio="xMidYMid meet">
<metadata>
Created by potrace 1.11, written by Peter Selinger 2001-2013
</metadata>
<g transform="translate(0.000000,300.000000) scale(0.100000,-0.100000)"
fill="#000000" stroke="none">
<path d="M386 2422 c-3 -15 -8 -49 -11 -77 -7 -54 -6 -53 -30 -225 -9 -63 -18
-133 -21 -155 -2 -22 -7 -58 -10 -80 -3 -22 -7 -51 -9 -65 -2 -14 -6 -43 -9
-65 -3 -22 -8 -60 -11 -85 -4 -25 -8 -56 -10 -70 -2 -14 -6 -45 -10 -70 -3
-25 -8 -56 -10 -70 -2 -14 -7 -52 -10 -85 -4 -33 -8 -67 -10 -75 -2 -8 -7 -39
-10 -69 -4 -30 -8 -61 -10 -70 -1 -9 -6 -41 -10 -71 -3 -30 -8 -66 -10 -80 -3
-14 -7 -45 -10 -70 -3 -25 -7 -58 -9 -75 -3 -16 -7 -52 -11 -80 -3 -27 -8 -59
-10 -70 -2 -11 -7 -47 -10 -80 -4 -33 -8 -64 -9 -70 0 -6 118 -11 335 -12
l336 -1 56 116 c31 64 83 173 115 242 33 69 88 184 122 255 34 72 84 175 110
230 26 55 76 159 110 230 34 72 79 166 100 210 21 44 75 157 120 250 45 94 86
181 92 195 9 24 11 22 45 -44 l35 -70 -20 -65 c-11 -36 -36 -119 -56 -183 -20
-65 -51 -169 -70 -230 -19 -62 -87 -284 -151 -493 -65 -209 -132 -432 -151
-495 -19 -63 -37 -122 -40 -132 -4 -15 14 -16 208 -15 l213 2 96 310 c100 325
99 316 84 471 l-6 70 58 46 c58 45 58 46 91 154 18 60 48 159 67 219 18 61 41
136 51 167 l17 57 76 3 c42 2 100 2 130 0 63 -4 65 24 -17 -242 -68 -221 -71
-230 -82 -230 -4 0 -72 -37 -151 -83 -79 -45 -156 -88 -170 -95 -24 -13 -25
-16 -18 -75 7 -61 14 -126 24 -229 11 -107 13 -119 17 -123 5 -5 24 5 193 100
66 37 138 78 160 90 69 38 137 76 226 126 l86 49 33 112 c18 62 40 138 50 168
10 30 27 89 40 130 12 41 26 86 30 100 21 63 81 261 85 277 2 10 15 54 29 98
14 44 26 89 26 99 0 36 -40 103 -68 115 -19 7 -300 10 -919 10 l-892 -1 28
-56 c57 -116 101 -208 101 -215 0 -6 -38 -90 -105 -232 -18 -38 -47 -99 -63
-135 -16 -36 -60 -130 -97 -210 -65 -139 -98 -213 -160 -347 -16 -35 -32 -63
-37 -63 -5 0 -6 5 -3 10 4 6 9 27 11 48 2 20 6 48 9 62 2 14 7 48 10 75 4 28
8 57 10 65 2 8 7 38 10 65 4 28 8 57 10 65 2 8 7 35 10 60 3 25 10 72 15 105
5 33 12 78 15 100 4 22 8 54 11 70 12 76 23 150 30 205 2 19 6 42 9 50 2 8 7
39 10 69 4 30 9 63 11 75 3 12 7 47 10 78 l6 58 -225 -1 -226 -1 -5 -26z"/>
</g>
</svg>
